<svg width="215" height="60" viewBox="0 0 215 60" fill="none" xmlns="http://www.w3.org/2000/svg">
<g clip-path="url(#clip0_4_151)">
<path d="M107.5 60C166.871 60 215 46.5685 215 30C215 13.4315 166.871 0 107.5 0C48.1294 0 0 13.4315 0 30C0 46.5685 48.1294 60 107.5 60Z" fill="white"/>
<path d="M121.645 45.913C125.707 45.913 129 42.8764 129 39.1304C129 35.3845 125.707 32.3478 121.645 32.3478C117.583 32.3478 114.289 35.3845 114.289 39.1304C114.289 42.8764 117.583 45.913 121.645 45.913Z" fill="black"/>
<path d="M121.645 43.8261C124.457 43.8261 126.737 41.7238 126.737 39.1304C126.737 36.5371 124.457 34.4348 121.645 34.4348C118.832 34.4348 116.553 36.5371 116.553 39.1304C116.553 41.7238 118.832 43.8261 121.645 43.8261Z" fill="white"/>
<path d="M176.526 45.913C180.589 45.913 183.882 42.8764 183.882 39.1304C183.882 35.3845 180.589 32.3478 176.526 32.3478C172.464 32.3478 169.171 35.3845 169.171 39.1304C169.171 42.8764 172.464 45.913 176.526 45.913Z" fill="black"/>
<path d="M176.526 43.8261C179.339 43.8261 181.618 41.7238 181.618 39.1304C181.618 36.5371 179.339 34.4348 176.526 34.4348C173.714 34.4348 171.434 36.5371 171.434 39.1304C171.434 41.7238 173.714 43.8261 176.526 43.8261Z" fill="white"/>
<path fill-rule="evenodd" clip-rule="evenodd" d="M143.126 26.087L142.862 28.6957H111.461V26.087H143.126ZM159.836 28.6957V26.087H181.618V28.6957H159.836Z" fill="#F38A0E"/>
<path d="M184.901 16.4015C185.408 16.4015 185.662 17.3096 185.662 17.3096C185.662 17.3096 189.215 28.6609 188.961 29.1149C188.707 29.5689 188.453 28.4338 186.169 27.2987C183.886 26.1635 184.393 26.6176 182.109 25.7095C179.825 24.8014 180.079 25.0285 178.81 24.1203C177.541 23.2122 177.288 23.2122 176.78 21.8501C176.272 20.4879 176.526 19.1258 177.541 17.9907C178.556 16.8555 179.221 16.899 179.825 16.6285C180.165 16.4766 182.338 16.1917 183.378 16.1744C184.19 16.161 184.678 16.4015 184.901 16.4015Z" fill="#66CDC7"/>
<path d="M165.211 25.5652V14.6087H173.132C173.132 14.6087 171.881 15.5614 171.047 16.7524C170.213 17.9433 170.005 19.1342 170.005 20.3251C170.005 21.5161 170.005 22.2306 170.63 23.6597C171.255 25.0889 171.881 25.5652 171.881 25.5652H165.211Z" fill="#66CDC7"/>
<path d="M138.053 25.5652V14.6087H129.566C129.566 14.6087 130.906 15.5614 131.799 16.7524C132.692 17.9433 132.916 19.1342 132.916 20.3251C132.916 21.5161 132.916 22.2306 132.246 23.6597C131.576 25.0889 130.906 25.5652 130.906 25.5652H138.053Z" fill="#66CDC7"/>
<path d="M116.553 25.5652V16.4723C116.553 16.4723 117.726 16.0061 120.541 16.2392C123.356 16.4723 123.121 16.4723 124.294 17.1718C125.467 17.8712 126.171 19.037 126.171 20.9022C126.171 22.7674 125.936 23.0006 125.232 23.7C124.529 24.3994 124.294 24.6326 123.356 25.0989C122.418 25.5652 121.479 25.5652 121.479 25.5652H116.553Z" fill="#66CDC7"/>
<path d="M152.763 14.087H150.5V42.2609H152.763V14.087Z" fill="#F38A0E"/>
<path d="M149.934 14.6087H144.276V29.764V32L144.503 34.236C144.578 34.6501 144.684 35.4783 145.408 37.4658C146.132 39.4534 148.727 40.4472 149.934 40.6957V14.6087Z" fill="#66CDC7"/>
<path d="M153.329 14.6087H158.987V29.764V32L158.761 34.236C158.685 34.6501 158.579 35.4783 157.855 37.4658C157.131 39.4534 154.536 40.4472 153.329 40.6957V14.6087Z" fill="#66CDC7"/>
<path d="M28.0224 40.2929C29.7334 41.3447 33.1077 42.2212 36.197 42.2212C43.7536 42.2212 47.3656 38.233 47.3656 33.6751C47.3656 29.3363 44.6566 26.9259 39.2386 24.9976C34.8187 23.4198 32.8701 22.0612 32.8701 19.3002C32.8701 17.2842 34.5335 14.8737 38.906 14.8737C41.8051 14.8737 43.9437 15.7064 44.9418 16.2762L46.0824 13.1645C44.7042 12.4195 42.2803 11.7183 39.0485 11.7183C32.8226 11.7183 28.6878 15.1367 28.6878 19.7384C28.6878 23.8581 31.9196 26.4 37.1475 28.153C41.4724 29.6431 43.1833 31.2647 43.1833 33.9819C43.1833 36.9621 40.712 39.0219 36.4821 39.0219C33.6305 39.0219 30.9691 38.1892 29.1155 37.0936L28.0224 40.2929ZM64.6731 41.7391L76.127 12.2003H71.707L66.289 26.7944C64.8157 30.6511 63.5325 34.3763 62.6295 37.7948H62.5345C61.6315 34.3325 60.4433 30.7388 59.1126 26.7506L54.1222 12.2003H49.6072L60.1106 41.7391H64.6731ZM92.5055 11.6744C83.9507 11.6744 77.6772 17.8101 77.6772 27.1889C77.6772 36.1294 83.5705 42.2212 92.0777 42.2212C100.252 42.2212 106.953 36.7868 106.953 26.663C106.953 17.8539 101.298 11.6744 92.5055 11.6744ZM92.3629 14.7861C99.2542 14.7861 102.581 20.9217 102.581 26.8383C102.581 33.5437 98.874 39.1096 92.3154 39.1096C85.7567 39.1096 82.0497 33.456 82.0497 27.1012C82.0497 20.6588 85.4716 14.7861 92.3629 14.7861Z" fill="#F38A0E"/>
<path fill-rule="evenodd" clip-rule="evenodd" d="M111.461 12V13.1492V39.1304H112.61C112.598 38.9579 112.592 38.7839 112.592 38.6087C112.592 33.9983 116.645 30.2609 121.645 30.2609C126.645 30.2609 130.697 33.9983 130.697 38.6087C130.697 38.7839 130.692 38.9579 130.68 39.1304H132.117C132.686 38.034 133.011 36.7679 133.011 35.3322C133.011 30.6365 129.192 28.1478 125.933 27.4435V27.3026C129.498 26.1287 131.738 23.4522 131.738 20.353C131.738 17.8643 130.618 15.9861 128.836 14.7652C128.513 14.518 128.171 14.2921 127.808 14.087H138.918V31.3409C138.918 41.2017 144.213 44.8643 151.241 44.8643C158.675 44.8643 164.225 40.92 164.225 31.2V14.087H174.733C172.32 15.6318 170.92 18.0033 170.92 20.7757C170.92 25.1896 174.383 27.913 179.984 29.7913C184.618 31.3878 186.451 33.1252 186.451 36.0365C186.451 37.0196 186.2 37.9093 185.72 38.6697L190.403 38.7044C190.757 37.7566 190.932 36.746 190.932 35.7078C190.932 31.0591 188.029 28.4765 182.224 26.4104C177.489 24.72 175.401 23.2643 175.401 20.3061C175.401 18.1461 177.183 15.5635 181.868 15.5635C183.088 15.5635 184.182 15.7011 185.126 15.9053L183.888 12.5217H183.882L183.599 12H111.461ZM159.744 14.087H143.399V31.4817C143.399 38.5252 146.81 41.5304 151.393 41.5304C156.435 41.5304 159.744 38.4313 159.744 31.4817V14.087ZM119.721 15.6104C117.684 15.6104 116.513 15.7513 115.8 15.8922V26.1287H119.823C124.457 26.1287 127.206 23.8278 127.206 20.7757C127.206 17.113 124.202 15.6104 119.721 15.6104Z" fill="#F38A0E"/>
<path d="M109.763 43.8261H25.4605V45.913H109.763V43.8261Z" fill="black"/>
</g>
<defs>
<clipPath id="clip0_4_151">
<rect width="215" height="60" fill="white"/>
</clipPath>
</defs>
</svg>
